<svg width="24" height="24" viewBox="0 0 24 24" fill="none" xmlns="http://www.w3.org/2000/svg">
<path d="M11.25 4.94458H4.83333C4.3471 4.94458 3.88079 5.13773 3.53697 5.48155C3.19315 5.82537 3 6.29168 3 6.77791V19.6112C3 20.0975 3.19315 20.5638 3.53697 20.9076C3.88079 21.2514 4.3471 21.4446 4.83333 21.4446H17.6667C18.1529 21.4446 18.6192 21.2514 18.963 20.9076C19.3068 20.5638 19.5 20.0975 19.5 19.6112V13.1946" stroke="#0C1A39" stroke-width="1.85" stroke-linecap="round" stroke-linejoin="round"/>
<path d="M18.125 3.56954C18.4897 3.20487 18.9843 3 19.5 3C20.0157 3 20.5103 3.20487 20.875 3.56954C21.2397 3.93422 21.4445 4.42882 21.4445 4.94454C21.4445 5.46027 21.2397 5.95487 20.875 6.31954L12.1667 15.0279L8.5 15.9445L9.41667 12.2779L18.125 3.56954Z" stroke="#0C1A39" stroke-width="1.85" stroke-linecap="round" stroke-linejoin="round"/>
</svg>
