<svg width="24" height="25" viewBox="0 0 24 25" fill="none" xmlns="http://www.w3.org/2000/svg">
<path d="M11.25 5.01453H4.83333C4.3471 5.01453 3.88079 5.21041 3.53697 5.55909C3.19315 5.90777 3 6.38069 3 6.8738V19.8887C3 20.3818 3.19315 20.8547 3.53697 21.2034C3.88079 21.5521 4.3471 21.7479 4.83333 21.7479H17.6667C18.1529 21.7479 18.6192 21.5521 18.963 21.2034C19.3068 20.8547 19.5 20.3818 19.5 19.8887V13.3812" stroke="#848B9B" stroke-width="1.85" stroke-linecap="round" stroke-linejoin="round"/>
<path d="M18.125 3.62002C18.4897 3.25019 18.9843 3.04242 19.5 3.04242C20.0157 3.04242 20.5103 3.25019 20.875 3.62002C21.2397 3.98985 21.4445 4.49145 21.4445 5.01447C21.4445 5.53749 21.2397 6.03909 20.875 6.40892L12.1667 15.2405L8.5 16.1701L9.41667 12.4515L18.125 3.62002Z" stroke="#0C1A39" stroke-width="1.85" stroke-linecap="round" stroke-linejoin="round"/>
</svg>
