<svg width="24" height="24" viewBox="0 0 24 24" fill="none" xmlns="http://www.w3.org/2000/svg">
<path d="M5 21V3.90002C5 3.90002 5.875 3 8.5 3C11.125 3 12.875 4.8 15.5 4.8C18.125 4.8 19 3.9 19 3.9V14.7C19 14.7 18.125 15.6 15.5 15.6C12.875 15.6 11.125 13.8 8.5 13.8C5.875 13.8 5 14.7 5 14.7" stroke="#0C1A39" stroke-width="1.85" stroke-linecap="round" stroke-linejoin="round"/>
<path d="M15.5 4.80027C18.125 4.80027 19 3.90027 19 3.90027V14.7003C19 14.7003 18.125 15.6003 15.5 15.6003" stroke="#0C1A39" stroke-width="1.85" stroke-linecap="round" stroke-linejoin="round"/>
<path d="M3 3L21 21" stroke="#0C1A39" stroke-width="1.85" stroke-linecap="round"/>
</svg>
