<svg width="24" height="25" viewBox="0 0 24 25" fill="none" xmlns="http://www.w3.org/2000/svg">
<path d="M18.4 8.60016V20.3252C18.4 20.7694 18.2103 21.1954 17.8728 21.5096C17.5352 21.8237 17.0774 22.0002 16.6 22.0002H7.59999C7.1226 22.0002 6.66476 21.8237 6.3272 21.5096C5.98963 21.1954 5.79999 20.7694 5.79999 20.3252V8.60016" stroke="#0C1A39" stroke-width="1.85478" stroke-linecap="round" stroke-linejoin="round"/>
<path d="M6.00003 3.33441L7.66717 4.01313L21.0043 9.44284" stroke="#0C1A39" stroke-width="1.85478" stroke-linecap="round" stroke-linejoin="round"/>
<path d="M10.1679 5.03111L10.8466 3.36398C11.0267 2.92182 11.3749 2.56929 11.8149 2.38392C12.2548 2.19856 12.7503 2.19555 13.1925 2.37555L16.5268 3.73298C16.9689 3.91299 17.3215 4.26126 17.5068 4.7012C17.6922 5.14113 17.6952 5.63668 17.5152 6.07883L16.8365 7.74597" stroke="#0C1A39" stroke-width="1.85478" stroke-linecap="round" stroke-linejoin="round"/>
<path d="M11.9999 12.1001V17.5001" stroke="#0C1A39" stroke-width="1.85478" stroke-linecap="round" stroke-linejoin="round"/>
<path d="M12.061 11.1001L9.99993 13.28" stroke="#0C1A39" stroke-width="1.85478" stroke-linecap="round" stroke-linejoin="round"/>
<path d="M11.9999 11.1001L14.061 13.28" stroke="#0C1A39" stroke-width="1.85478" stroke-linecap="round" stroke-linejoin="round"/>
</svg>
