<svg width="24" height="25" viewBox="0 0 24 25" fill="none" xmlns="http://www.w3.org/2000/svg">
<path d="M11.9952 15.0211C13.5685 15.0211 14.8438 13.7277 14.8438 12.1322C14.8438 10.5367 13.5685 9.24335 11.9952 9.24335C10.4219 9.24335 9.14661 10.5367 9.14661 12.1322C9.14661 13.7277 10.4219 15.0211 11.9952 15.0211Z" stroke="#0C1A39" stroke-width="1.85" stroke-miterlimit="10" stroke-linecap="round" stroke-linejoin="round"/>
<path d="M2.5 12.979V11.2842C2.5 10.2828 3.3071 9.45466 4.3041 9.45466C6.02274 9.45466 6.72539 8.22207 5.86132 6.71023C5.36757 5.84357 5.66192 4.71691 6.52599 4.21617L8.16867 3.26284C8.91879 2.81025 9.88731 3.07988 10.3336 3.84062L10.438 4.02358C11.2926 5.53542 12.6979 5.53542 13.562 4.02358L13.6664 3.84062C14.1127 3.07988 15.0812 2.81025 15.8313 3.26284L17.474 4.21617C18.3381 4.71691 18.6324 5.84357 18.1387 6.71023C17.2746 8.22207 17.9773 9.45466 19.6959 9.45466C20.6834 9.45466 21.5 10.2731 21.5 11.2842V12.979C21.5 13.9805 20.6929 14.8087 19.6959 14.8087C17.9773 14.8087 17.2746 16.0413 18.1387 17.5531C18.6324 18.4294 18.3381 19.5464 17.474 20.0472L15.8313 21.0005C15.0812 21.4531 14.1127 21.1834 13.6664 20.4227L13.562 20.2398C12.7074 18.7279 11.3021 18.7279 10.438 20.2398L10.3336 20.4227C9.88731 21.1834 8.91879 21.4531 8.16867 21.0005L6.52599 20.0472C5.66192 19.5464 5.36757 18.4198 5.86132 17.5531C6.72539 16.0413 6.02274 14.8087 4.3041 14.8087C3.3071 14.8087 2.5 13.9805 2.5 12.979Z" stroke="#848B9B" stroke-width="1.85" stroke-miterlimit="10" stroke-linecap="round" stroke-linejoin="round"/>
</svg>
