<svg width="13" height="14" viewBox="0 0 13 14" fill="none" xmlns="http://www.w3.org/2000/svg">
<path d="M0.987305 3.1519H2.15186H11.4683" stroke="white" stroke-width="1.2" stroke-linecap="round" stroke-linejoin="round"/>
<path d="M10.3038 3.1519V11.3038C10.3038 11.6127 10.1811 11.9089 9.96266 12.1273C9.74427 12.3457 9.44806 12.4684 9.1392 12.4684H3.31641C3.00755 12.4684 2.71134 12.3457 2.49295 12.1273C2.27455 11.9089 2.15186 11.6127 2.15186 11.3038V3.1519M3.89869 3.1519V1.98734C3.89869 1.67848 4.02139 1.38227 4.23978 1.16388C4.45818 0.945478 4.75439 0.822784 5.06325 0.822784H7.39236C7.70122 0.822784 7.99743 0.945478 8.21583 1.16388C8.43422 1.38227 8.55692 1.67848 8.55692 1.98734V3.1519" stroke="white" stroke-width="1.2" stroke-linecap="round" stroke-linejoin="round"/>
<path d="M5.06348 6.06329V9.55696" stroke="#5AC0FA" stroke-width="1.2" stroke-linecap="round" stroke-linejoin="round"/>
<path d="M7.39258 6.06329V9.55696" stroke="#5AC0FA" stroke-width="1.2" stroke-linecap="round" stroke-linejoin="round"/>
</svg>
