<svg width="15" height="15" viewBox="0 0 15 15" fill="none" xmlns="http://www.w3.org/2000/svg">
<g clip-path="url(#clip0_20_299)">
<path d="M6.5574 2.98734H2.48145C2.17259 2.98734 1.87638 3.11004 1.65799 3.32843C1.43959 3.54683 1.31689 3.84304 1.31689 4.1519V12.3038C1.31689 12.6127 1.43959 12.9089 1.65799 13.1273C1.87638 13.3457 2.17259 13.4684 2.48145 13.4684H10.6334C10.9422 13.4684 11.2384 13.3457 11.4568 13.1273C11.6752 12.9089 11.7979 12.6127 11.7979 12.3038V8.22785" stroke="white" stroke-width="1.2" stroke-linecap="round" stroke-linejoin="round"/>
<path d="M10.9245 2.11393C11.1561 1.88228 11.4703 1.75214 11.7979 1.75214C12.1255 1.75214 12.4397 1.88228 12.6713 2.11393C12.903 2.34557 13.0331 2.65975 13.0331 2.98734C13.0331 3.31494 12.903 3.62912 12.6713 3.86076L7.13966 9.39241L4.81055 9.97468L5.39283 7.64557L10.9245 2.11393Z" stroke="#5AC0FA" stroke-width="1.2" stroke-linecap="round" stroke-linejoin="round"/>
</g>
<defs>
<clipPath id="clip0_20_299">
<rect width="13.9747" height="13.9747" fill="white" transform="translate(0.152344 0.658226)"/>
</clipPath>
</defs>
</svg>
