<svg width="15" height="15" viewBox="0 0 15 15" fill="none" xmlns="http://www.w3.org/2000/svg">
<path d="M11.1421 11.1043C10.1468 11.863 8.93476 12.2833 7.68338 12.3038C3.60743 12.3038 1.27832 7.64556 1.27832 7.64556C2.00261 6.29578 3.00718 5.1165 4.22465 4.18683M6.4606 3.12708C6.8614 3.03326 7.27175 2.98637 7.68338 2.98733C11.7593 2.98733 14.0884 7.64556 14.0884 7.64556C13.735 8.3068 13.3135 8.92933 12.8307 9.50303M8.91781 8.87999C8.75789 9.05162 8.56504 9.18927 8.35076 9.28475C8.13649 9.38022 7.90517 9.43156 7.67063 9.4357C7.43608 9.43984 7.2031 9.39669 6.98559 9.30884C6.76808 9.22098 6.57049 9.09021 6.40461 8.92434C6.23873 8.75846 6.10797 8.56087 6.02011 8.34336C5.93225 8.12585 5.88911 7.89287 5.89325 7.65832C5.89738 7.42377 5.94872 7.19246 6.0442 6.97818C6.13967 6.76391 6.27733 6.57105 6.44895 6.41113" stroke="white" stroke-width="1.2" stroke-linecap="round" stroke-linejoin="round"/>
<path d="M1.27832 1.24051L14.0884 14.0506" stroke="#5AC0FA" stroke-width="1.2" stroke-linecap="round" stroke-linejoin="round"/>
</svg>
