<svg width="24" height="25" viewBox="0 0 24 25" fill="none" xmlns="http://www.w3.org/2000/svg">
<path d="M18.4 8.6001V20.3251C18.4 20.7693 18.2103 21.1954 17.8728 21.5095C17.5352 21.8236 17.0774 22.0001 16.6 22.0001H7.59999C7.1226 22.0001 6.66476 21.8236 6.3272 21.5095C5.98963 21.1954 5.79999 20.7693 5.79999 20.3251V8.6001" stroke="white" stroke-width="1.85478" stroke-linecap="round" stroke-linejoin="round"/>
<path d="M6.00006 3.33447L7.6672 4.01319L21.0043 9.4429" stroke="white" stroke-width="1.85478" stroke-linecap="round" stroke-linejoin="round"/>
<path d="M10.168 5.03105L10.8467 3.36391C11.0267 2.92176 11.375 2.56923 11.8149 2.38386C12.2548 2.1985 12.7504 2.19549 13.1925 2.37549L16.5268 3.73292C16.969 3.91293 17.3215 4.2612 17.5069 4.70114C17.6922 5.14107 17.6952 5.63662 17.5152 6.07877L16.8365 7.74591" stroke="white" stroke-width="1.85478" stroke-linecap="round" stroke-linejoin="round"/>
<path d="M11.9999 12.1001V17.5001" stroke="#5AC0FA" stroke-width="1.85478" stroke-linecap="round" stroke-linejoin="round"/>
<path d="M12.061 11.1001L9.99993 13.28" stroke="#5AC0FA" stroke-width="1.85478" stroke-linecap="round" stroke-linejoin="round"/>
<path d="M11.9999 11.1001L14.061 13.28" stroke="#5AC0FA" stroke-width="1.85478" stroke-linecap="round" stroke-linejoin="round"/>
</svg>
