<svg width="24" height="24" viewBox="0 0 24 24" fill="none" xmlns="http://www.w3.org/2000/svg">
<path d="M11.9952 14.8117C13.5685 14.8117 14.8438 13.5363 14.8438 11.9631C14.8438 10.3898 13.5685 9.1145 11.9952 9.1145C10.4219 9.1145 9.14661 10.3898 9.14661 11.9631C9.14661 13.5363 10.4219 14.8117 11.9952 14.8117Z" stroke="#5AC0FA" stroke-width="1.85" stroke-miterlimit="10" stroke-linecap="round" stroke-linejoin="round"/>
<path d="M2.5 12.798V11.1269C2.5 10.1393 3.3071 9.32279 4.3041 9.32279C6.02274 9.32279 6.72539 8.1074 5.86132 6.61665C5.36757 5.76207 5.66192 4.65113 6.52599 4.15738L8.16867 3.21735C8.91879 2.77107 9.88731 3.03694 10.3336 3.78706L10.438 3.96747C11.2926 5.45823 12.6979 5.45823 13.562 3.96747L13.6664 3.78706C14.1127 3.03694 15.0812 2.77107 15.8313 3.21735L17.474 4.15738C18.3381 4.65113 18.6324 5.76207 18.1387 6.61665C17.2746 8.1074 17.9773 9.32279 19.6959 9.32279C20.6834 9.32279 21.5 10.1299 21.5 11.1269V12.798C21.5 13.7855 20.6929 14.6021 19.6959 14.6021C17.9773 14.6021 17.2746 15.8175 18.1387 17.3083C18.6324 18.1723 18.3381 19.2738 17.474 19.7675L15.8313 20.7076C15.0812 21.1538 14.1127 20.888 13.6664 20.1378L13.562 19.9574C12.7074 18.4667 11.3021 18.4667 10.438 19.9574L10.3336 20.1378C9.88731 20.888 8.91879 21.1538 8.16867 20.7076L6.52599 19.7675C5.66192 19.2738 5.36757 18.1628 5.86132 17.3083C6.72539 15.8175 6.02274 14.6021 4.3041 14.6021C3.3071 14.6021 2.5 13.7855 2.5 12.798Z" stroke="white" stroke-width="1.85" stroke-miterlimit="10" stroke-linecap="round" stroke-linejoin="round"/>
</svg>
